<?xml version="1.0" encoding="UTF-8"?>
<svg id="Capa_2" data-name="Capa 2" xmlns="http://www.w3.org/2000/svg" viewBox="0 0 365.1 273.33">
  <defs>
    <style>
      .cls-1 {
        fill: #fff;
      }
    </style>
  </defs>
  <g id="textos">
    <g>
      <g>
        <path class="cls-1" d="M0,265.28c0-4.42,3.59-8.05,8.16-8.01,2.91,.03,5.61,1.35,6.99,4.3l-3.59,1.97c-.67-1.32-1.9-2.15-3.4-2.15-2.18,0-3.81,1.75-3.81,3.9s1.63,3.9,3.81,3.9c1.5,0,2.73-.83,3.4-2.15l3.59,1.97c-1.38,2.95-4.08,4.27-6.99,4.3-4.57,.03-8.16-3.62-8.16-8.02Z"/>
        <path class="cls-1" d="M17,265.25c0-4.39,3.59-8.02,8.22-8.02s8.25,3.65,8.25,8.02-3.59,8.05-8.25,8.05-8.22-3.62-8.22-8.05Zm12.12,.03c0-2.15-1.66-3.93-3.9-3.93s-3.87,1.78-3.87,3.93,1.63,3.93,3.87,3.93,3.9-1.78,3.9-3.93Z"/>
        <path class="cls-1" d="M40.72,265.83v7.06h-4.36v-7.58c0-4.42,2.61-8.05,7.92-8.05s7.97,3.59,7.97,8.05v7.58h-4.36v-7.06c0-2.33-1.13-4.33-3.62-4.33s-3.56,1.99-3.56,4.33Z"/>
        <path class="cls-1" d="M57.16,266.88v-5.5h-2.79v-3.69h2.79v-3.87h4.36v3.87h5.37v3.69h-5.37v5.37c0,1.69,1.01,2.67,2.61,2.67,.89,0,2.03-.28,2.76-.74v3.9c-.77,.49-2.08,.74-3.16,.74-4.39,0-6.57-2.64-6.57-6.45Z"/>
        <path class="cls-1" d="M70.11,252.72c0-1.48,1.23-2.7,2.7-2.7s2.67,1.23,2.67,2.7-1.2,2.7-2.67,2.7-2.7-1.2-2.7-2.7Zm4.88,4.97v15.2h-4.36v-15.2h4.36Z"/>
        <path class="cls-1" d="M83.61,265.83v7.06h-4.36v-7.58c0-4.42,2.61-8.05,7.92-8.05s7.97,3.59,7.97,8.05v7.58h-4.36v-7.06c0-2.33-1.13-4.33-3.62-4.33s-3.56,1.99-3.56,4.33Z"/>
        <path class="cls-1" d="M109.66,264.73v-7.03h4.36v7.56c0,4.45-2.64,8.05-7.73,8.05s-7.7-3.59-7.7-8.05v-7.56h4.36v7.06c0,2.33,1.11,4.33,3.34,4.33s3.38-2,3.38-4.36Z"/>
        <path class="cls-1" d="M117.58,252.72c0-1.48,1.23-2.7,2.7-2.7s2.67,1.23,2.67,2.7-1.2,2.7-2.67,2.7-2.7-1.2-2.7-2.7Zm4.88,4.97v15.2h-4.36v-15.2h4.36Z"/>
        <path class="cls-1" d="M125.95,265.31c0-4.73,3.25-8.05,7.98-8.05,1.53,0,3.01,.55,4.11,1.44l.03-8.02h4.36v14.62c0,4.61-3.5,8.01-8.25,8.01s-8.22-3.62-8.22-8.01Zm12.12,0c0-2.15-1.66-3.93-3.9-3.93s-3.87,1.78-3.87,3.93,1.63,3.9,3.87,3.9,3.9-1.75,3.9-3.9Z"/>
        <path class="cls-1" d="M145.32,265.25c0-4.36,3.56-8.02,8.22-8.02s8.25,3.44,8.25,8.02v7.65h-4.14v-1.78c-1.07,1.35-2.73,2.18-4.82,2.18-4.42,0-7.52-3.62-7.52-8.05Zm12.12,.03c0-2.15-1.66-3.93-3.9-3.93s-3.87,1.78-3.87,3.93,1.63,3.93,3.87,3.93,3.9-1.78,3.9-3.93Z"/>
        <path class="cls-1" d="M164.68,265.31c0-4.73,3.25-8.05,7.98-8.05,1.53,0,3.01,.55,4.11,1.44l.03-8.02h4.36v14.62c0,4.61-3.5,8.01-8.25,8.01s-8.22-3.62-8.22-8.01Zm12.12,0c0-2.15-1.66-3.93-3.9-3.93s-3.87,1.78-3.87,3.93,1.63,3.9,3.87,3.9,3.9-1.75,3.9-3.9Z"/>
        <path class="cls-1" d="M192.69,265.31c0-4.73,3.25-8.05,7.98-8.05,1.53,0,3.01,.55,4.11,1.44l.03-8.02h4.36v14.62c0,4.61-3.5,8.01-8.25,8.01s-8.22-3.62-8.22-8.01Zm12.12,0c0-2.15-1.66-3.93-3.9-3.93s-3.87,1.78-3.87,3.93,1.63,3.9,3.87,3.9,3.9-1.75,3.9-3.9Z"/>
        <path class="cls-1" d="M212.05,265.16c0-4.39,3.19-8.02,7.88-8.02s7.61,3.56,7.61,7.71v1.29h-11.29c.31,2.03,1.87,3.38,4.05,3.38,1.66,0,3.04-.8,3.74-2.21l3.34,1.69c-1.32,2.73-3.83,4.3-7.06,4.3-4.72,0-8.28-3.29-8.28-8.14Zm11.17-1.44c-.18-1.57-1.47-2.76-3.31-2.76s-3.16,1.23-3.47,2.76h6.78Z"/>
        <path class="cls-1" d="M238.63,265.16c0-4.39,3.19-8.02,7.88-8.02s7.61,3.56,7.61,7.71v1.29h-11.29c.31,2.03,1.87,3.38,4.05,3.38,1.66,0,3.04-.8,3.74-2.21l3.34,1.69c-1.32,2.73-3.83,4.3-7.06,4.3-4.72,0-8.28-3.29-8.28-8.14Zm11.17-1.44c-.18-1.57-1.47-2.76-3.31-2.76s-3.16,1.23-3.47,2.76h6.78Z"/>
        <path class="cls-1" d="M256.64,269.89l3.22-1.81c.64,1.23,1.66,1.75,3.19,1.75,1.41,0,2.3-.55,2.3-1.44,0-2.46-8.34-.34-8.34-6.2,0-2.73,2.39-4.88,6.13-4.88,3.25,0,5.22,1.53,6.13,3.29l-3.22,1.81c-.49-1.11-1.59-1.63-2.82-1.63-1.07,0-1.87,.52-1.87,1.32,0,2.46,8.34,.49,8.34,6.2,0,3.07-2.97,5.04-6.44,5.04-3.16,0-5.37-1.17-6.63-3.44Z"/>
        <path class="cls-1" d="M273.97,266.88v-5.5h-2.79v-3.69h2.79v-3.87h4.36v3.87h5.37v3.69h-5.37v5.37c0,1.69,1.01,2.67,2.61,2.67,.89,0,2.03-.28,2.76-.74v3.9c-.77,.49-2.08,.74-3.16,.74-4.39,0-6.57-2.64-6.57-6.45Z"/>
        <path class="cls-1" d="M297.69,264.73v-7.03h4.36v7.56c0,4.45-2.64,8.05-7.73,8.05s-7.7-3.59-7.7-8.05v-7.56h4.36v7.06c0,2.33,1.11,4.33,3.34,4.33s3.37-2,3.37-4.36Z"/>
        <path class="cls-1" d="M304.75,265.31c0-4.73,3.25-8.05,7.98-8.05,1.53,0,3.01,.55,4.11,1.44l.03-8.02h4.36v14.62c0,4.61-3.5,8.01-8.25,8.01s-8.22-3.62-8.22-8.01Zm12.12,0c0-2.15-1.66-3.93-3.9-3.93s-3.87,1.78-3.87,3.93,1.63,3.9,3.87,3.9,3.9-1.75,3.9-3.9Z"/>
        <path class="cls-1" d="M324.97,252.72c0-1.48,1.23-2.7,2.7-2.7s2.67,1.23,2.67,2.7-1.2,2.7-2.67,2.7-2.7-1.2-2.7-2.7Zm4.88,4.97v15.2h-4.36v-15.2h4.36Z"/>
        <path class="cls-1" d="M333.34,265.25c0-4.39,3.59-8.02,8.22-8.02s8.25,3.65,8.25,8.02-3.59,8.05-8.25,8.05-8.22-3.62-8.22-8.05Zm12.12,.03c0-2.15-1.66-3.93-3.9-3.93s-3.87,1.78-3.87,3.93,1.63,3.93,3.87,3.93,3.9-1.78,3.9-3.93Z"/>
        <path class="cls-1" d="M352.03,269.89l3.22-1.81c.64,1.23,1.66,1.75,3.19,1.75,1.41,0,2.3-.55,2.3-1.44,0-2.46-8.34-.34-8.34-6.2,0-2.73,2.39-4.88,6.13-4.88,3.25,0,5.22,1.53,6.13,3.29l-3.22,1.81c-.49-1.11-1.59-1.63-2.82-1.63-1.07,0-1.87,.52-1.87,1.32,0,2.46,8.35,.49,8.35,6.2,0,3.07-2.98,5.04-6.44,5.04-3.16,0-5.37-1.17-6.63-3.44Z"/>
      </g>
      <g>
        <path class="cls-1" d="M345.06,91.81c-2.31,0-4.19-2.56-4.19-5.73V48.16c0-3.16,1.87-5.73,4.19-5.73s4.19,2.56,4.19,5.73v37.92c0,3.16-1.87,5.73-4.19,5.73Z"/>
        <path class="cls-1" d="M356.22,114.82h-20.33c-2.41,0-4.37-1.96-4.37-4.37,0-14.09,6.25-24.72,14.54-24.72s14.54,10.63,14.54,24.72c0,2.41-1.96,4.37-4.37,4.37Z"/>
        <path class="cls-1" d="M246.14,224.3c-10.95,0-20.75-2.65-28.72-5.96-16.3-6.77-30.24-18.92-40.33-35.13l-50.94-81.8c-10.82-17.38-29.7-28.15-49.3-27.86h-1.01c-28.99,.69-40.94,27.39-41.43,28.53-1.02,2.31-22.66,52.87,15.6,83.56,35.91,28.79,67.56-3.31,71.05-7.07,5.01-5.39,13.45-5.73,18.86-.75,5.41,4.99,5.79,13.38,.83,18.82-17.51,19.17-62.5,45.9-107.46,9.85C-10.3,171.53-1.05,115.9,9.93,91.38c.62-1.5,18.75-43.45,65.33-44.53l1.33-.02c.26,0,.53,0,.8,0,28.56,0,55.88,15.45,71.46,40.45l50.94,81.8c7.13,11.45,16.78,19.95,27.9,24.57,17.19,7.15,33.14,4.51,48.78-8.02,21.77-17.46,24.15-41.35,21.98-59.1l-112.01-2.15c-3.86-.07-7.5-1.81-9.98-4.77-2.48-2.96-3.56-6.84-2.97-10.65,5.07-32.46,31.25-57.73,63.68-61.47,4.51-.52,7.44-.59,7.76-.6,1.84-.08,4.04-.12,6.29-.06,46.58,1.08,64.71,43.03,65.46,44.82,10.85,24.24,20.1,79.86-23.5,114.82-16.62,13.33-32.8,17.81-47.03,17.81Zm-41.16-126.28l85.86,1.65c-3.8-7-16.13-25.54-40.25-26.1-1.65-.03-3.27-.02-4.83,.05-.27,0-2.32,.06-5.56,.44-15.15,1.74-28.16,10.96-35.23,23.96Z"/>
        <path class="cls-1" d="M358.41,41.06L248.27,.12c-.42-.16-.9-.16-1.33,0l-110.14,40.94c-.75,.28-1.25,.99-1.25,1.79s.5,1.51,1.25,1.79l41.72,15.51c14.91-15.89,40.42-26.36,69.39-26.36s54.3,10.4,69.23,26.19l41.27-15.34c.75-.28,1.25-.99,1.25-1.79s-.5-1.51-1.25-1.79Z"/>
      </g>
    </g>
  </g>
</svg>