<?xml version="1.0" encoding="UTF-8"?>
<svg id="Capa_2" data-name="Capa 2" xmlns="http://www.w3.org/2000/svg" xmlns:xlink="http://www.w3.org/1999/xlink" viewBox="0 0 293.08 87.98">
  <defs>
    <style>
      .cls-1 {
        clip-path: url(#clippath);
      }

      .cls-2 {
        fill: #fff;
      }
    </style>
    <clipPath id="clippath">
      <path class="cls-2" d="M4.67,24.9c-2.58,0-4.67,2.79-4.67,6.23s2.09,6.22,4.67,6.22c11.64,0,21.41,7.98,24.14,18.77,2.8,10.69,12.52,18.58,24.09,18.58,9.73,0,18.16-5.58,22.25-13.72h0c3.32-6.63,10.18-11.19,18.1-11.19h1.68c.86,0,1.56-.7,1.56-1.56s-.7-1.56-1.56-1.56c-7.88-.83-15.18,2.97-19.18,9.22h0c-4.93,7.66-13.9,10.48-23.57,9.46-11.51-1.22-20.96-8.25-22.61-19.18-1.58-11.01-9.85-19.98-21.42-21.2l-.37-.08h-3.11Z"/>
    </clipPath>
  </defs>
  <g id="textos">
    <g>
      <path class="cls-2" d="M286.26,87.3c-1.66,.04-3.26-.33-4.84-.8-1.53-.46-.78-1.57-.65-2.46,.14-1.04,.87-.73,1.48-.54,1.45,.45,2.92,.61,4.42,.51,1.25-.08,2.07-.7,2.19-2,.12-1.29-.47-2.09-1.75-2.37-1.02-.22-2.06-.39-3.05-.7-2.37-.74-3.45-2.42-3.44-5.14,.02-2.62,1.22-4.51,3.44-5.2,2.56-.8,5.12-.47,7.65,.24,1.37,.38,.5,1.39,.52,2.11,.03,.79-.49,1.01-1.21,.84-1.22-.28-2.45-.39-3.71-.34-1.63,.06-2.5,.67-2.62,1.87-.12,1.27,.53,1.97,2.17,2.33,.83,.18,1.67,.29,2.48,.51,2.43,.67,3.47,2.05,3.7,4.79,.21,2.52-.88,4.65-2.86,5.62-1.24,.61-2.56,.76-3.92,.74"/>
      <path class="cls-2" d="M249.83,61.26c1.07,.04,1.82,.53,2.58,1,1.04,.65,2.02,.7,3.01-.14,.32-.27,.73-.99,1.17-.29,.4,.64,1.18,1.34,.48,2.25-1.22,1.58-3.29,2.06-5.04,.97-1.37-.85-2.58-1.26-3.84,.09-.3,.32-.75,.43-.98-.07-.29-.63-1.01-1.28-.39-2.03,.81-.97,1.85-1.63,3.02-1.8"/>
      <path class="cls-2" d="M240.67,73.25c-.17-3.26-1.37-4.53-4.6-4.97-2.55-.35-5.06,0-7.53,.66-1.62,.43-1.68,.69-1.27,2.49,.34,1.49,1.24,.68,1.96,.57,.54-.08,1.06-.27,1.6-.36,1.43-.25,2.87-.32,4.3-.03,1.27,.25,1.31,1.26,1.39,2.3,.09,1.12-.66,1.15-1.4,1.29-1.66,.3-3.33,.59-4.98,.93-2.92,.61-4.05,2.04-4.1,5.15-.05,3.12,1.24,5.03,3.96,5.68,2.66,.63,5.33,.45,7.97-.21,2.04-.51,2.63-1.22,2.7-3.34,.05-1.64,.01-3.28,0-4.93,0-1.74,.07-3.49-.02-5.22m-4.68,10.66c-1.47,.61-3.13,.74-4.63-.09-1.26-.7-1.24-1.96-1.1-3.17,.13-1.07,.84-1.66,1.86-1.87,.49-.1,.98-.17,1.47-.26q2.92-.54,2.92,2.38c0,.1,0,.2,0,.3,.07,1.38,.32,2.37-.52,2.72"/>
      <path class="cls-2" d="M277.01,73.08c-.6-2.73-2.31-4.31-5.08-4.76-1.54-.25-3.07-.22-4.59,.09-2.38,.49-3.86,1.91-4.53,4.24-.47,1.65-.57,3.32-.56,5.2-.03,1.42,.08,3,.43,4.56,.57,2.55,2.12,4.11,4.67,4.65,1.88,.4,3.75,.36,5.61-.16,2.12-.59,3.43-2,3.95-4.07,.82-3.23,.81-6.5,.1-9.75m-3.99,8.78c-.39,1.5-1.25,2.12-2.96,2.15-2.01,.04-2.98-.45-3.3-2.05-.56-2.79-.56-5.63,0-8.42,.31-1.58,1.25-2.09,3.12-2.09,1.84,0,2.7,.59,3.12,2.13,.39,1.41,.32,2.85,.3,4.29,.03,1.34,.06,2.68-.29,3.99"/>
      <path class="cls-2" d="M253.79,68.15c-2.41-.08-4.75,.35-7.06,1-1.36,.39-2.07,1.24-2.03,2.73,.05,2.24,.01,4.48,.02,6.72,0,2.29,.03,4.58-.01,6.87-.02,1.01,.32,1.51,1.38,1.41,.3-.03,.6-.04,.89,0,1.46,.22,2.01-.3,1.97-1.87-.11-3.78,.05-7.57-.08-11.34-.05-1.54,.54-2.05,1.9-2.1,.35-.01,.69-.1,1.03-.12,2.55-.11,3.08,.39,3.08,2.95,0,3.68,0,7.36,0,11.05,0,.58-.09,1.19,.75,1.4,2.55,.63,3.44-.01,3.44-2.57,0-.7,0-1.39,0-2.09,0-2.89,.02-5.77,0-8.66-.03-3.66-1.62-5.26-5.28-5.38"/>
      <path class="cls-2" d="M86.5,49.52v23.97c0,.49,.36,.88,.81,.88h8.36c.45,0,.81-.4,.81-.88v-25.25"/>
      <path class="cls-2" d="M125.09,46.67c-4.51,0-12.24,1.75-14.6,3.13l-1.38-2.26-.14-.22c-.19-.3-.38-.33-.59-.33h-7.08c-.43,0-.77,.38-.77,.84v39.32c0,.46,.34,.83,.77,.83h8.42c.42,0,.77-.37,.77-.83v-14.61c3.44,1.17,11.38,1.81,14.6,1.81,10.53,0,12.39-5.22,12.39-13.4s-3.01-14.28-12.39-14.28m-2.58,20.59c-3.18,0-8.29-.68-11.19-1.28h-.05c-.12,0-.23-.03-.33-.08-.27-.14-.45-.43-.45-.77v-8.59c0-.27,.12-.51,.3-.67,.16-.06,.33-.12,.51-.18,2.6-.84,7.82-2.22,11.21-2.22s6.09,1.49,6.09,7.81-2.94,5.99-6.09,5.99"/>
      <path class="cls-2" d="M183.88,64.78h10.11c6.8,0,10.48-3.39,10.48-8.29,0-9.07-3.47-9.94-14.38-9.94-11.9,0-16.43,2.01-16.43,13.76,0,10.05,2.83,14.07,12.4,14.07,5.63,0,9.26,0,14.57-1.27,.07,0,.08-.01,.2-.08,.17-.1,.3-.27,.35-.49,0-.05,.02-.1,.02-.15v-3.99c0-.05,0-.1-.02-.15-.06-.31-.31-.55-.62-.57-1.32,.1-2.43,.17-3.42,.23-3.3,.18-12.65,.86-13.49-2.59-.02-.09-.04-.19-.05-.29-.04-.17,.05-.23,.28-.23m.12-9.25c.81-2.69,1.3-3.46,5.11-3.46,4.75,0,5.45,1.87,5.45,5.32,0,1.34-1.06,2.06-3.12,2.06h-7.08c-.41,0-.75-.35-.77-.8,.03-1.25,.16-2.28,.41-3.12"/>
      <path class="cls-2" d="M171.11,48.34c-.06-.28-.21-.43-.45-.54-.09-.04-.2-.08-.39-.12l-.21-.03c-5.8-.63-18.4-1.1-18.4-1.1-5.47-.15-11.3,2.71-11.3,11.34v28.55c0,1.05,.36,1.45,.81,1.45h8.34c.45,0,.81-.39,.81-.88v-13.71c0-.4,.25-.72,.6-.81,.05-.01,.11-.02,.17-.02h.4l13.08-.59h-.01l1.2-.04c.27-.09,.48-.33,.55-.63h0c.02-.06,.03-.13,.03-.21v-4.08c0-.07-.01-.14-.03-.21v-.05c-.06-.28-.25-.43-.49-.54-.09-.04-.19-.06-.3-.06l-1.33-.07-12.92-.65h-.18s-.08,0-.12-.01c-.37-.06-.65-.41-.65-.82v-6.35c0-.06,0-.12,.02-.18,.08-1.73,.6-3.29,3.68-3.29l16.29-.13h.03s0,0,.01,0c.38,0,.69-.29,.78-.68,.01-.06,.02-.13,.02-.2v-5.12c0-.07-.01-.14-.02-.2"/>
      <path class="cls-2" d="M87.16,38.91c0,2.58,2.09,4.67,4.67,4.67s4.67-2.09,4.67-4.67-2.09-4.67-4.67-4.67-4.67,2.09-4.67,4.67"/>
      <path class="cls-2" d="M46.69,52.92c0,3.44,2.79,6.22,6.23,6.22s6.23-2.79,6.23-6.22-2.79-6.23-6.23-6.23-6.23,2.79-6.23,6.23"/>
      <path class="cls-2" d="M3.11,7.78c0,4.3,3.48,7.78,7.78,7.78s7.78-3.48,7.78-7.78S15.19,0,10.89,0,3.11,3.48,3.11,7.78"/>
      <g>
        <path class="cls-2" d="M4.67,24.9c-2.58,0-4.67,2.79-4.67,6.23s2.09,6.22,4.67,6.22c11.64,0,21.41,7.98,24.14,18.77,2.8,10.69,12.52,18.58,24.09,18.58,9.73,0,18.16-5.58,22.25-13.72h0c3.32-6.63,10.18-11.19,18.1-11.19h1.68c.86,0,1.56-.7,1.56-1.56s-.7-1.56-1.56-1.56c-7.88-.83-15.18,2.97-19.18,9.22h0c-4.93,7.66-13.9,10.48-23.57,9.46-11.51-1.22-20.96-8.25-22.61-19.18-1.58-11.01-9.85-19.98-21.42-21.2l-.37-.08h-3.11Z"/>
        <g class="cls-1">
          <rect class="cls-2" y="25.1" width="96.49" height="49.8"/>
        </g>
      </g>
      <g>
        <path class="cls-2" d="M212.29,66.39c-1.55-1.55-2.52-3.83-2.52-8.05v-.06c0-6.56,2.98-11.6,9.33-11.6,2.13,0,3.86,.52,5.13,1.28,.73,.43,1.22,1.06,1.22,2.01,0,1.21-1,2.16-2.22,2.16-.39,0-.82-.15-1.15-.33-.97-.55-1.85-.85-3.13-.85-2.64,0-3.98,2.13-4.28,4.92,1.06-.7,2.31-1.37,4.4-1.37,4.22,0,7.47,2.34,7.47,6.77v.06c0,4.34-3.49,7.35-8.11,7.35-2.76,0-4.65-.79-6.14-2.28Zm9.6-4.86v-.06c0-1.79-1.4-3.1-3.71-3.1s-3.65,1.28-3.65,3.07v.06c0,1.79,1.4,3.16,3.71,3.16s3.65-1.31,3.65-3.13Z"/>
        <path class="cls-2" d="M229.32,55.29v-.05c0-5.28,3.28-9.42,8.12-9.42s8.06,4.08,8.06,9.36v.05c0,5.28-3.25,9.42-8.12,9.42s-8.06-4.08-8.06-9.36Zm12.07,.57v-.06c0-3.63-1.61-6.37-4.01-6.37s-3.95,2.65-3.95,6.31v.06c0,3.65,1.59,6.37,4.01,6.37s3.95-2.68,3.95-6.31Z"/>
      </g>
    </g>
  </g>
</svg>